PathFileType	4	(X/Y/Z)	/Users/niels/Desktop/University/Third Semester/Perception and Action/Exam/Gymnastics Motion Tracking/Code for Gym Tracking/Analyzed Data/Webcam_Backflip/id1_1_baseline_Sports2D/id1_1_baseline_Sports2D_px_person00.trc
DataRate	CameraRate	NumFrames	NumMarkers	Units	OrigDataRate	OrigDataStartFrame	OrigNumFrames
29.872340425531917	29.872340425531917	7	22	m	29.872340425531917	146	235
Frame#	Time	Hip			RHip			RKnee			RAnkle			RBigToe			RSmallToe			RHeel			LHip			LKnee			LAnkle			LBigToe			LSmallToe			LHeel			Neck			Head			Nose			RShoulder			RElbow			RWrist			LShoulder			LElbow			LWrist		
		X1	Y1	Z1	X2	Y2	Z2	X3	Y3	Z3	X4	Y4	Z4	X5	Y5	Z5	X6	Y6	Z6	X7	Y7	Z7	X8	Y8	Z8	X9	Y9	Z9	X10	Y10	Z10	X11	Y11	Z11	X12	Y12	Z12	X13	Y13	Z13	X14	Y14	Z14	X15	Y15	Z15	X16	Y16	Z16	X17	Y17	Z17	X18	Y18	Z18	X19	Y19	Z19	X20	Y20	Z20	X21	Y21	Z21	X22	Y22	Z22
146	4.887464387464387	0.9409888583028818	-0.6154384394269758	0.0	0.9281804689758698	-0.6151519105614337	0.0	0.933078991359153	-0.7185663412048426	0.0	0.9208967253372382	-0.8266331783252311	0.0	0.9671886121299895	-0.8420322351408384	0.0	0.9584083056566156	-0.8441622575446539	0.0	0.91346551820586	-0.8427831703844203	0.0	0.9513744046796578	-0.616379061818896	0.0	0.9410540002105787	-0.7184814121817168	0.0	0.9257157554121264	-0.8242788681782961	0.0	0.9707489844362145	-0.8412865812363323	0.0	0.9685110851728654	-0.8374297148129879	0.0	0.9139572647160314	-0.8391107545250176	0.0	0.9351736743963407	-0.45106741142526846	0.0	0.9453823390455098	-0.38376161080197424	0.0	0.94912645387047	-0.4244470542067617	0.0	0.8973783589759469	-0.47357445665865416	0.0	0.8870970479326913	-0.5494266058447463	0.0	0.9068389500230062	-0.6155642095810725	0.0	0.9605663014352834	-0.4773237778140512	0.0	0.9610936334585136	-0.5527167507788711	0.0	0.9784335585354753	-0.6186654030447669	0.0
147	4.920940170940171	0.9420231689964024	-0.6159161838246756	0.0	0.9285495982608737	-0.6156106680919732	0.0	0.9329371101728374	-0.7188752841848477	0.0	0.9207664673954584	-0.8264104852919287	0.0	0.9670411975856941	-0.8414533183441588	0.0	0.9581511173718785	-0.8434553167183895	0.0	0.9133285631635658	-0.8426146609662881	0.0	0.9524333482142503	-0.6167757704069167	0.0	0.9421727929069375	-0.7188150708209569	0.0	0.9258804468102712	-0.8240056131965724	0.0	0.9710107379921522	-0.8408910420541084	0.0	0.9686000012715352	-0.8367153409716178	0.0	0.9143469254423676	-0.8389220887546159	0.0	0.9367152770850287	-0.4511244779453921	0.0	0.94604862365379	-0.38388323320924045	0.0	0.9497826482033467	-0.42396130539654786	0.0	0.898331386879426	-0.47383588208719624	0.0	0.8882591532017918	-0.5497418898553746	0.0	0.907196615723645	-0.6164794168754422	0.0	0.962565051546445	-0.47738140907545	0.0	0.959773665010881	-0.5525583265756524	0.0	0.9736329259648858	-0.6199992121887644	0.0
148	4.954415954415954	0.9428710859150826	-0.6146422662706814	0.0	0.9289222615378578	-0.6136536297181604	0.0	0.9332839785647553	-0.7173371449538682	0.0	0.9210352296449916	-0.8245951872024377	0.0	0.9671943945256952	-0.8396101391050431	0.0	0.958067857909119	-0.8414455668334743	0.0	0.9136144426559395	-0.8408374008229952	0.0	0.9534687483982143	-0.6147903687224368	0.0	0.9436996542226247	-0.7173847074500825	0.0	0.9260254529684386	-0.8219769969345065	0.0	0.9710461089742944	-0.8390995255737013	0.0	0.9686583581636438	-0.8346540165824102	0.0	0.914543973176395	-0.8371847019465334	0.0	0.9382596801384288	-0.44944259850502327	0.0	0.947023730075716	-0.3821145425730328	0.0	0.9503803089929459	-0.42181488162258274	0.0	0.8992692108111963	-0.4724557584250263	0.0	0.8884958470085436	-0.5482652613188105	0.0	0.9072696499207609	-0.6155262408694183	0.0	0.9644709287304728	-0.4757245942515969	0.0	0.9574883520222274	-0.5503383655902145	0.0	0.968444278789	-0.6186444631551321	0.0
149	4.987891737891738	0.9436692469818081	-0.6117504997412061	0.0	0.9293798860302779	-0.6094272797615122	0.0	0.9341446893131009	-0.7140534544868306	0.0	0.9215991622282746	-0.8213496968068179	0.0	0.9675455299162156	-0.8367569737657549	0.0	0.9580721711525326	-0.8384127372553931	0.0	0.9142548272281776	-0.8376028773178334	0.0	0.9546153350335228	-0.6105537660068556	0.0	0.9456028291223454	-0.7143084361660038	0.0	0.926159357403468	-0.818382568792403	0.0	0.9708020087956094	-0.8361199193341252	0.0	0.9686414285915118	-0.8314878885563048	0.0	0.9145326132554631	-0.8340443525769505	0.0	0.939744627315658	-0.4462381048234032	0.0	0.9482856661527063	-0.37868725255656405	0.0	0.9508852086060915	-0.4182686492946506	0.0	0.9001573867051352	-0.4696492764484289	0.0	0.8882156807425451	-0.5452536450679947	0.0	0.9070241816934239	-0.6129879619542632	0.0	0.9663229317267336	-0.47257542600537955	0.0	0.9548455051071668	-0.5463688578511311	0.0	0.9635262434791316	-0.6150973062420172	0.0
150	5.021367521367521	0.9445077398395509	-0.607549991329658	0.0	0.9299302243583626	-0.6034587034483254	0.0	0.93549300196625	-0.7093697800540117	0.0	0.9223441670209471	-0.8170181594122373	0.0	0.9680529067382201	-0.8332104257115578	0.0	0.9581638877177311	-0.8347003879373851	0.0	0.9151010746888771	-0.833285093657342	0.0	0.955944223577324	-0.6045827482515569	0.0	0.947763006602855	-0.7099312322819263	0.0	0.9262826728643243	-0.8136396513469736	0.0	0.970310000679798	-0.8322766190445725	0.0	0.968525749261902	-0.8275358018187565	0.0	0.9143354571792881	-0.8298348828126103	0.0	0.9411628533464227	-0.44185747549565857	0.0	0.9497685350125902	-0.3740173887212138	0.0	0.9513084091260087	-0.41366356973665186	0.0	0.9009974300165743	-0.465699253909713	0.0	0.8877952762232254	-0.5410322804527379	0.0	0.906435783636298	-0.6092163576803242	0.0	0.9681794818183592	-0.4682749462995909	0.0	0.952679274319831	-0.541162578067082	0.0	0.95964213606982	-0.6100993541743177	0.0
151	5.054843304843305	0.9454243771313504	-0.6025180969092331	0.0	0.9305525195641123	-0.5966306270321051	0.0	0.9372426345845875	-0.7038692124533973	0.0	0.9231682240585006	-0.8120882708386943	0.0	0.9687357900447158	-0.8293390386074768	0.0	0.9584193662498243	-0.8307093606096221	0.0	0.9159991012393777	-0.8284288684628	0.0	0.9574261445328712	-0.5977580274057015	0.0	0.9499472425245603	-0.7047949389325905	0.0	0.9263473755685432	-0.8083446599368379	0.0	0.9696818387137774	-0.828021562584744	0.0	0.9683207533901952	-0.8232236306253969	0.0	0.9139548573477565	-0.8250514153725136	0.0	0.942533584654383	-0.4367421727811539	0.0	0.9513677997195753	-0.3686346525678537	0.0	0.9516962754405011	-0.40840055764786354	0.0	0.9018022684020537	-0.46095294787246494	0.0	0.8874654424322528	-0.5359908403359147	0.0	0.9055521724139606	-0.6046106451369339	0.0	0.9700648686034787	-0.46325822240545667	0.0	0.9517073359560049	-0.5353615871817136	0.0	0.9574808631841311	-0.6044236621170509	0.0
152	5.088319088319088	0.9464169160974321	-0.5972323006006185	0.0	0.9312472318482286	-0.5900100602404379	0.0	0.9392424043291808	-0.6982623854784508	0.0	0.9240272838932534	-0.8070943709426015	0.0	0.9695866158118083	-0.8255656259107764	0.0	0.9589031805171908	-0.8268880019793253	0.0	0.916871135452633	-0.8236125373960641	0.0	0.9589716762992293	-0.5911539360638526	0.0	0.9518736133133436	-0.6995301682953814	0.0	0.9262923424451757	-0.8031077484419759	0.0	0.9690344863829606	-0.8238770128989231	0.0	0.9680139449785077	-0.8190467697073608	0.0	0.9133779932131924	-0.8202099502273217	0.0	0.9438780641079663	-0.4313984917105107	0.0	0.9529707241633506	-0.36310510931108275	0.0	0.9521270127222862	-0.4029690318905831	0.0	0.9025942558408083	-0.455837233232149	0.0	0.887299179195319	-0.5305800047825288	0.0	0.9045078320199859	-0.5995855000381307	0.0	0.9719681721047945	-0.45800754645883784	0.0	0.9523414268042358	-0.5296384424765043	0.0	0.9574900359587737	-0.5987276650649395	0.0
